<?xml version="1.0" standalone="no"?>
<!DOCTYPE svg PUBLIC "-//W3C//DTD SVG 20010904//EN"
 "http://www.w3.org/TR/2001/REC-SVG-20010904/DTD/svg10.dtd">
<svg version="1.0" xmlns="http://www.w3.org/2000/svg"
 width="700.000000pt" height="700.000000pt" viewBox="0 0 700.000000 700.000000"
 preserveAspectRatio="xMidYMid meet">
<metadata>
Created by potrace 1.14, written by Peter Selinger 2001-2017
</metadata>
<g transform="translate(0.000000,700.000000) scale(0.100000,-0.100000)"
fill="#000000" stroke="none">
<path d="M3430 6406 c-61 -16 -112 -49 -154 -98 -66 -76 -66 -78 -66 -615 0
-266 -2 -483 -6 -483 -3 0 -177 171 -386 381 -427 426 -435 432 -553 432 -120
1 -210 -55 -264 -163 -26 -52 -29 -69 -27 -132 2 -55 9 -85 29 -123 19 -37
175 -199 616 -640 l591 -590 -2 -290 -3 -290 -289 -3 -289 -2 -586 585 c-322
322 -603 596 -623 610 -78 53 -189 56 -285 9 -98 -47 -155 -140 -157 -253 -1
-122 4 -129 432 -557 210 -210 382 -384 382 -388 0 -3 -216 -6 -481 -6 -545 0
-543 0 -628 -76 -129 -116 -126 -317 5 -433 82 -72 82 -72 623 -72 265 0 481
-2 481 -5 0 -3 -167 -173 -371 -377 -204 -204 -382 -385 -395 -402 -13 -17
-30 -56 -38 -87 -50 -194 97 -376 296 -364 35 3 81 12 103 21 29 12 201 177
640 616 l600 599 293 0 292 0 0 -292 0 -292 -599 -601 c-663 -665 -636 -632
-636 -765 0 -159 125 -283 285 -284 122 0 129 5 560 435 l385 384 5 -500 5
-500 25 -49 c51 -101 146 -159 258 -159 117 0 209 57 264 163 l23 45 3 498 c1
273 5 497 9 497 3 0 177 -172 387 -382 426 -426 433 -432 556 -432 114 1 206
59 257 162 39 79 39 184 1 257 -20 37 -179 202 -617 640 l-591 590 0 292 0
293 293 -1 293 0 585 -585 c321 -322 600 -596 620 -609 56 -36 145 -51 212
-36 143 32 230 143 230 292 0 111 -11 125 -431 546 -210 210 -382 384 -382
387 0 3 217 5 482 5 542 1 541 1 624 74 156 137 122 381 -66 479 l-45 23 -497
3 c-274 1 -498 5 -498 8 0 3 167 172 371 377 204 204 381 384 394 401 79 107
60 287 -41 375 -66 58 -111 75 -199 75 -53 -1 -93 -7 -120 -18 -29 -13 -212
-190 -640 -617 l-600 -599 -293 0 -292 0 0 293 0 292 591 590 c434 434 597
603 617 640 35 68 38 188 4 252 -57 108 -149 167 -261 167 -124 0 -130 -5
-561 -435 l-385 -384 -5 500 -5 500 -25 48 c-61 121 -205 187 -330 153z"/>
</g>
</svg>
